<svg xmlns="http://www.w3.org/2000/svg" viewBox="0 0 512 512">
  <rect width="512" height="512" rx="90" fill="#1e3a8a"/>
  <rect x="156" y="96" width="200" height="270" rx="14" fill="white"/>
  <rect x="196" y="76" width="120" height="38" rx="19" fill="#1e3a8a"/>
  <rect x="176" y="152" width="160" height="11" rx="5" fill="#cbd5e1"/>
  <rect x="176" y="178" width="130" height="11" rx="5" fill="#cbd5e1"/>
  <rect x="176" y="204" width="145" height="11" rx="5" fill="#cbd5e1"/>
  <rect x="176" y="230" width="110" height="11" rx="5" fill="#cbd5e1"/>
  <circle cx="186" cy="265" r="9" fill="#22c55e"/>
  <rect x="202" y="259" width="100" height="11" rx="5" fill="#cbd5e1"/>
  <circle cx="186" cy="295" r="9" fill="#ef4444"/>
  <rect x="202" y="289" width="120" height="11" rx="5" fill="#cbd5e1"/>
  <circle cx="186" cy="325" r="9" fill="#eab308"/>
  <rect x="202" y="319" width="85" height="11" rx="5" fill="#cbd5e1"/>
  <!-- bottom badge -->
  <rect x="310" y="310" width="130" height="130" rx="65" fill="#1e3a8a"/>
  <rect x="310" y="310" width="130" height="130" rx="65" fill="#22c55e"/>
  <path d="M355 375 l18 18 l32-32" stroke="white" stroke-width="12" stroke-linecap="round" stroke-linejoin="round" fill="none"/>
</svg>
